HIERARCHY
ROOT hips
{
  OFFSET 0 10.6860622 2.3727825e-15
  CHANNELS 6 Xposition Yposition Zposition Yrotation Xrotation Zrotation
  JOINT leftUpperLeg
  {
    OFFSET 0.6642549969 -0.9402397400000004 0
    CHANNELS 3 Yrotation Xrotation Zrotation
    JOINT leftLowerLeg
    {
      OFFSET 0 -3.997221335632195 0
      CHANNELS 3 Yrotation Xrotation Zrotation
      JOINT leftFoot
      {
        OFFSET -0.13777839790000004 -4.6145792000000005 -0.22186036399999998
        CHANNELS 3 Yrotation Xrotation Zrotation
        JOINT leftToes
        {
          OFFSET -0.03777410834999995 -0.9130806927000008 0.85230013
          CHANNELS 3 Yrotation Xrotation Zrotation
          End Site
          {
            OFFSET -0.03777410834999995 -0.9130806927000008 0.85230013
          }
        }
      }
    }
  }
  JOINT rightUpperLeg
  {
    OFFSET -0.6642778626 -0.9402397400000004 0
    CHANNELS 3 Yrotation Xrotation Zrotation
    JOINT rightLowerLeg
    {
      OFFSET 0 -3.997221452859387 0
      CHANNELS 3 Yrotation Xrotation Zrotation
      JOINT rightFoot
      {
        OFFSET 0.1377926176 -4.6145792000000005 -0.22185782299999995
        CHANNELS 3 Yrotation Xrotation Zrotation
        JOINT rightToes
        {
          OFFSET 0.037780746850000047 -0.9130806927000008 0.85230167
          CHANNELS 3 Yrotation Xrotation Zrotation
          End Site
          {
            OFFSET 0.037780746850000047 -0.9130806927000008 0.85230167
          }
        }
      }
    }
  }
  JOINT spine
  {
    OFFSET 0 0.13988381660000015 0
    CHANNELS 3 Yrotation Xrotation Zrotation
    JOINT chest
    {
      OFFSET 0 0.6191039003973773 0
      CHANNELS 3 Yrotation Xrotation Zrotation
      JOINT upperChest
      {
        OFFSET 0 0.9855186130586943 0
        CHANNELS 3 Yrotation Xrotation Zrotation
        JOINT leftShoulder
        {
          OFFSET 0.1807663869 1.5087829790000005 0
          CHANNELS 3 Yrotation Xrotation Zrotation
          JOINT leftUpperArm
          {
            OFFSET 0.5985063006419806 0 0
            CHANNELS 3 Yrotation Xrotation Zrotation
            JOINT leftLowerArm
            {
              OFFSET 2.2993332369501065 0 0
              CHANNELS 3 Yrotation Xrotation Zrotation
              JOINT leftHand
              {
                OFFSET 2.395047042602395 0 0
                CHANNELS 3 Yrotation Xrotation Zrotation
                JOINT leftIndexProximal
                {
                  OFFSET 0.5766295810000004 0.04556643899499946 0.17265095988184
                  CHANNELS 3 Yrotation Xrotation Zrotation
                  JOINT leftIndexIntermediate
                  {
                    OFFSET 0.2957229000000008 -0.019352197700001517 -0.007932640616999987
                    CHANNELS 3 Yrotation Xrotation Zrotation
                    JOINT leftIndexDistal
                    {
                      OFFSET 0.19008243099999922 -0.012484908149998475 -0.002786250786000012
                      CHANNELS 3 Yrotation Xrotation Zrotation
                      End Site
                      {
                        OFFSET 0.19008243099999922 -0.012484908149998475 -0.002786250786000012
                      }
                    }
                  }
                }
                JOINT leftMiddleProximal
                {
                  OFFSET 0.5834975091000001 0.0524350405149987 0.02204081888183999
                  CHANNELS 3 Yrotation Xrotation Zrotation
                  JOINT leftMiddleIntermediate
                  {
                    OFFSET 0.33880573540000003 -0.019871473270000717 -0.00000971183179999946
                    CHANNELS 3 Yrotation Xrotation Zrotation
                    JOINT leftMiddleDistal
                    {
                      OFFSET 0.20676022730000088 -0.012221336379999448 0.0001471936708000235
                      CHANNELS 3 Yrotation Xrotation Zrotation
                      End Site
                      {
                        OFFSET 0.20676022730000088 -0.012221336379999448 0.0001471936708000235
                      }
                    }
                  }
                }
                JOINT leftLittleProximal
                {
                  OFFSET 0.5344154683999995 -0.012880921405001189 -0.24414037221816004
                  CHANNELS 3 Yrotation Xrotation Zrotation
                  JOINT leftLittleIntermediate
                  {
                    OFFSET 0.21758961730000093 -0.011650919939999227 0.011893592810000034
                    CHANNELS 3 Yrotation Xrotation Zrotation
                    JOINT leftLittleDistal
                    {
                      OFFSET 0.1475273964999999 -0.008152365682999818 0.006001092492999946
                      CHANNELS 3 Yrotation Xrotation Zrotation
                      End Site
                      {
                        OFFSET 0.1475273964999999 -0.008152365682999818 0.006001092492999946
                      }
                    }
                  }
                }
                JOINT leftRingProximal
                {
                  OFFSET 0.5799399463000003 0.026911854694997794 -0.12150566991816003
                  CHANNELS 3 Yrotation Xrotation Zrotation
                  JOINT leftRingIntermediate
                  {
                    OFFSET 0.26167887460000006 -0.013480186499999602 0.010996293000000053
                    CHANNELS 3 Yrotation Xrotation Zrotation
                    JOINT leftRingDistal
                    {
                      OFFSET 0.17667108799999987 -0.008990287899999228 0.0055541023999999065
                      CHANNELS 3 Yrotation Xrotation Zrotation
                      End Site
                      {
                        OFFSET 0.17667108799999987 -0.008990287899999228 0.0055541023999999065
                      }
                    }
                  }
                }
                JOINT leftThumbProximal
                {
                  OFFSET 0.11018806699999972 -0.09448718900500053 0.17047963138184
                  CHANNELS 3 Yrotation Xrotation Zrotation
                  JOINT leftThumbIntermediate
                  {
                    OFFSET 0.31062601459999983 -0.08126270900000132 0.15443142000000007
                    CHANNELS 3 Yrotation Xrotation Zrotation
                    JOINT leftThumbDistal
                    {
                      OFFSET 0.21627175790000086 -0.08833193599999878 0.018771167799999988
                      CHANNELS 3 Yrotation Xrotation Zrotation
                      End Site
                      {
                        OFFSET 0.21627175790000086 -0.08833193599999878 0.018771167799999988
                      }
                    }
                  }
                }
              }
            }
          }
        }
        JOINT neck
        {
          OFFSET 0 1.5463305265074576 0
          CHANNELS 3 Yrotation Xrotation Zrotation
          JOINT head
          {
            OFFSET 0 0.8456443600000344 0
            CHANNELS 3 Yrotation Xrotation Zrotation
            JOINT leftEye
            {
              OFFSET 0.30408573140000006 0.5104519199999995 0.1276382305
              CHANNELS 3 Yrotation Xrotation Zrotation
              End Site
              {
                OFFSET 0.30408573140000006 0.5104519199999995 0.1276382305
              }
            }
            JOINT rightEye
            {
              OFFSET -0.30409491089999996 0.5104519199999995 0.1276379445
              CHANNELS 3 Yrotation Xrotation Zrotation
              End Site
              {
                OFFSET -0.30409491089999996 0.5104519199999995 0.1276379445
              }
            }
            JOINT jaw
            {
              OFFSET -3.155239131000001e-7 -0.11984121820000082 0.60178107
              CHANNELS 3 Yrotation Xrotation Zrotation
              End Site
              {
                OFFSET -3.155239131000001e-7 -0.11984121820000082 0.60178107
              }
            }
          }
        }
        JOINT rightShoulder
        {
          OFFSET -0.1807303465 1.5087829790000005 0
          CHANNELS 3 Yrotation Xrotation Zrotation
          JOINT rightUpperArm
          {
            OFFSET -0.5985063796536958 0 0
            CHANNELS 3 Yrotation Xrotation Zrotation
            JOINT rightLowerArm
            {
              OFFSET -2.2993322059002854 0 0
              CHANNELS 3 Yrotation Xrotation Zrotation
              JOINT rightHand
              {
                OFFSET -2.395045314457259 0 0
                CHANNELS 3 Yrotation Xrotation Zrotation
                JOINT rightIndexProximal
                {
                  OFFSET -0.5764487688300002 0.0441371204405987 0.17361932004999997
                  CHANNELS 3 Yrotation Xrotation Zrotation
                  JOINT rightIndexIntermediate
                  {
                    OFFSET -0.29573011380000047 -0.01934826376999843 -0.007698921482999974
                    CHANNELS 3 Yrotation Xrotation Zrotation
                    JOINT rightIndexDistal
                    {
                      OFFSET -0.19008373999999884 -0.012503266380000655 -0.0026365778999999897
                      CHANNELS 3 Yrotation Xrotation Zrotation
                      End Site
                      {
                        OFFSET -0.19008373999999884 -0.012503266380000655 -0.0026365778999999897
                      }
                    }
                  }
                }
                JOINT rightMiddleProximal
                {
                  OFFSET -0.5834852037300005 0.05211639405060153 0.02307162440000001
                  CHANNELS 3 Yrotation Xrotation Zrotation
                  JOINT rightMiddleIntermediate
                  {
                    OFFSET -0.33880114510000003 -0.019952774050000954 0.0002455003561999819
                    CHANNELS 3 Yrotation Xrotation Zrotation
                    JOINT rightMiddleDistal
                    {
                      OFFSET -0.20675694929999955 -0.012273788999999091 0.00030209124000002766
                      CHANNELS 3 Yrotation Xrotation Zrotation
                      End Site
                      {
                        OFFSET -0.20675694929999955 -0.012273788999999091 0.00030209124000002766
                      }
                    }
                  }
                }
                JOINT rightLittleProximal
                {
                  OFFSET -0.5346811737299992 -0.011214256288399227 -0.24363941305000003
                  CHANNELS 3 Yrotation Xrotation Zrotation
                  JOINT rightLittleIntermediate
                  {
                    OFFSET -0.21757715980000092 -0.011771559690000988 0.01201554387
                    CHANNELS 3 Yrotation Xrotation Zrotation
                    JOINT rightLittleDistal
                    {
                      OFFSET -0.1475201849000004 -0.00822055339600003 0.006082065407000015
                      CHANNELS 3 Yrotation Xrotation Zrotation
                      End Site
                      {
                        OFFSET -0.1475201849000004 -0.00822055339600003 0.006082065407000015
                      }
                    }
                  }
                }
                JOINT rightRingProximal
                {
                  OFFSET -0.5800810755299999 0.027657985680600072 -0.12066365025000003
                  CHANNELS 3 Yrotation Xrotation Zrotation
                  JOINT rightRingIntermediate
                  {
                    OFFSET -0.26166445029999974 -0.013623118409999302 0.011164098990000045
                    CHANNELS 3 Yrotation Xrotation Zrotation
                    JOINT rightRingDistal
                    {
                      OFFSET -0.17666387530000027 -0.009072900100000503 0.005668185599999959
                      CHANNELS 3 Yrotation Xrotation Zrotation
                      End Site
                      {
                        OFFSET -0.17666387530000027 -0.009072900100000503 0.005668185599999959
                      }
                    }
                  }
                }
                JOINT rightThumbProximal
                {
                  OFFSET -0.10997596379000074 -0.09577489355940072 0.16989765924999997
                  CHANNELS 3 Yrotation Xrotation Zrotation
                  JOINT rightThumbIntermediate
                  {
                    OFFSET -0.31036620999999986 -0.08229339117999834 0.15440884469999996
                    CHANNELS 3 Yrotation Xrotation Zrotation
                    JOINT rightThumbDistal
                    {
                      OFFSET -0.21631306399999906 -0.08825326400000111 0.018656797720000014
                      CHANNELS 3 Yrotation Xrotation Zrotation
                      End Site
                      {
                        OFFSET -0.21631306399999906 -0.08825326400000111 0.018656797720000014
                      }
                    }
                  }
                }
              }
            }
          }
        }
      }
    }
  }
}
MOTION
Frames: 4
Frame Time: 0.03333333333333333
0.014882422983646393 -0.08928428404541044 0.009055960923433304 -5.286458850579385 -3.7282557350004013 -3.357283977015496 15.116819435182952 -10.402244077768161 7.359940728970018 2.145743449420824 12.126150506912426 4.596556330729207 0.42945011660831517 1.282309110503197 -7.1162076996129695 -0.00000491727192630723 -4.92851741115407 -7.801837183988595e-7 -10.334739589827432 0.6539952626170582 3.533082659862011 -9.884053612289323 7.221220234672308 -4.405783333921832 -1.6050619315713532 -3.653657912744141 3.328565290652579 -0.0000027593394900288147 -7.277006038403885 -0.0000025422072653411243 1.5822096407020667 3.2940793487971507 2.817478058739011 0.7664719499795037 2.270555749391908 3.142615235312941 0 0 0 -17.611639271607935 1.0137895747225147 -12.416168642784555 -20.71810101911731 3.225711434165181 -70.89378377698033 -1.459240374018391 0.00024046917235672735 0.01885045877386247 -1.7268629533501343 -33.22263185433568 -5.2222371071976195 -1.0672849903037571 0.013485225633730849 -7.580730680473729 1.5317883911365866 0.2342392953653179 -17.389690891820663 0.7174169654424742 0.05045426373903014 -8.047212303466548 2.4585324872152774 -0.10509492571060053 -15.733831040714824 1.534330587417217 0.2350368066796114 -17.41949057599634 1.6201128113784729 0.26277580094117764 -18.427194176599347 5.221006337812477 0.8409853924738327 -27.1129160338933 1.5343666314833755 0.23506215329802072 -17.419863198283416 1.4573408525073457 0.2115481278540297 -16.519847575555797 3.374720641702857 0.08814134482757086 -21.170622599194743 1.8305422097298782 0.33802153949184904 -20.924783115593286 1.5738535326895675 0.2476198076385179 -17.88294739251169 2.2219308641299005 -0.6699969559969592 4.790407198635679 26.119909846479228 10.710857174966156 21.925877241078094 3.763152353067125 -13.792250092805379 8.088035827083692 -0.08580933522953711 5.626560153209714 0.44504819578449606 1.3796247950063607 -7.560928713568084 -0.28143120865322363 0 0 0 0 0 0 0 0 0 15.531423616580636 1.1541945479793607 14.828388852223542 28.797003869866785 11.307944678736236 64.73355620410477 6.693174192851415 0.005036169788121737 -0.08625378912630503 -0.45275401839322676 -20.194307137224577 6.934718220516087 1.350080013113231 0.03318368886507012 6.8077408330207145 -1.1745291747201207 0.1799344657541907 17.419160310520827 -0.5501146238088525 0.038762286992040464 8.060546819273513 -2.013416087867512 -0.16089373503053558 15.030848793080219 -1.1764804873330945 0.18055389493981944 17.44904934343325 -1.2422484453457578 0.20185926803083948 18.458559867636843 -4.555263125469354 0.671332989836806 26.474966177366248 -1.1765025741787407 0.18055677644018303 17.449401998116173 -1.1174514752563516 0.16250657323218434 16.547806116601308 -2.8169519395236784 -0.015180704255196461 20.487459148797598 -1.4035704069235493 0.25965077015605487 20.96069050414997 -1.2065102048387153 0.19012261315331166 17.909320438320965 -0.22878795322541456 -1.6636934808688828 -4.209643230264871 -30.657964462168803 11.061953042891533 -22.20118499919677 -3.8678735265324797 -15.531281751678277 -11.62220712040866
0.01502950768917799 -0.08938728087158232 0.009914278984069824 -5.286412104251716 -3.7282531682473765 -3.3502156183879 15.116438850221632 -10.404469741319295 7.352502053367318 2.1459838295916085 12.138990332240784 4.597036799168072 0.4295643368173454 1.274365757949414 -7.116400084194893 -0.0000024586594589077664 -4.928532407640174 -3.90062055346072e-7 -10.333916937087334 0.6393200933752948 3.5242873840068136 -9.893247043029135 7.247577731362356 -4.411359612878982 -1.6047213739370518 -3.6666463974321286 3.3335553250120555 -0.000003362520606878909 -7.277012063348227 0.0000026217991848039597 1.5821777971453264 3.294106073379387 2.8163510897011808 0.766472110173509 2.2705559630030283 3.1426148087331756 0 0 0 -17.611632760535695 1.0137920297060374 -12.416162805233784 -20.73289216814269 3.21466259257001 -70.89499553084434 -1.4671161323185289 0.00024335097107409956 0.018943318326012794 -1.759093984782837 -33.23561065733757 -5.200348514448968 -1.0678443058667084 0.013844985347916096 -7.574649845751317 1.5317951122577402 0.23424500502429324 -17.38970168959103 0.7174155781684913 0.05044941456964375 -8.0472156849342 2.4576154050797454 -0.10510629159138846 -15.723934592034785 1.5343253598846942 0.23502850899717373 -17.419493834497043 1.6201184654272407 0.26278679339248634 -18.427208216213387 5.220996248298735 0.8409940378632866 -27.11292674740133 1.5343648178495988 0.23504614490744105 -17.419852400409997 1.4573505611072781 0.2115568123920357 -16.519853457855266 3.3739009033289853 0.08797888751906822 -21.161467189185657 1.8305454098029161 0.3380375213454276 -20.92479231010079 1.5738462782834177 0.24760566688045055 -17.882953316397487 2.2087665616806045 -0.6710224083636241 4.788057490945635 26.119912997365645 10.710822418480745 21.925879167494124 3.7631400489240634 -13.792223719153686 8.088064549528406 -0.08580742504818482 5.626555434721271 0.4450479276966541 1.365665148730775 -7.535698783043055 -0.2885850572616024 0 0 0 0 0 0 0 0 0 15.522616254646742 1.1565233688909509 14.828346412561423 28.81163886424174 11.30144167604529 64.72898547020861 6.69317543884377 0.005053343228304191 -0.08626306723407981 -0.44262982175031684 -20.19602101209302 6.9345938110495045 1.3595688899348095 0.028758932924651526 6.854399528078549 -1.1795499706672146 0.18151937101086085 17.49615269749188 -0.5553451465162055 0.03948902862732868 8.137765839775838 -2.016778465781988 -0.16110331060765143 15.077473709251521 -1.1764740853487838 0.18052490651257586 17.44904771445241 -1.2422514328696905 0.20185466562871515 18.4585490680933 -4.556519144187291 0.6722052862929676 26.4968321800123 -1.1789835048423118 0.18134282574394822 17.48719595509874 -1.1198934923601465 0.16322370597161265 16.5850333962929 -2.8169442648457577 -0.01519406114415491 20.487472736181047 -1.4035753146994792 0.25965768045746396 20.96069209871851 -1.2065074306742445 0.19011961158881188 17.909311264054782 -0.22044171527229692 -1.6641072019229575 -4.2129662866806425 -30.661371701232337 11.061171840668901 -22.202196851414705 -3.8678673377421915 -15.531283523940795 -11.62219251892713
0.01545609813183546 -0.08963618986816435 0.01171802170574665 -5.286308832549953 -3.72403814209313 -3.3325556912669834 15.11550645567695 -10.410070428267067 7.333420877150597 2.146682268783278 12.169347982802185 4.598259399133039 0.4298231962050345 1.2583184712681175 -7.119231674985603 0.00000236755538729231 -4.928520410451264 0.0000016750059794764387 -10.33153591127126 0.608115325261628 3.501737422153718 -9.901602394160713 7.304365284940869 -4.422000513220094 -1.6038025345356495 -3.698964863826045 3.3464083444070214 -0.000016936534329862964 -7.277014645467257 0.0000010795587390538568 1.5820901615168634 3.2941930886241204 2.8133085814203627 0.766472110173509 2.2705570310586314 3.1426148087331756 0 0 0 -17.611636016071873 1.013793097090178 -12.416169476720357 -20.75605270171197 3.1969470274027887 -70.89689144278445 -1.485280750535373 0.00025460523872970997 0.019192044921301 -1.814212431218888 -33.257077473715086 -5.165223020368101 -1.0706963263363078 0.015731026423770153 -7.543129586058647 1.5317950055732776 0.2342440978822129 -17.389696801043378 0.7174126969071395 0.050453896883024284 -8.047230534248158 2.454562814408123 -0.1051894679608956 -15.690944854058587 1.5343357082653781 0.2350351791599046 -17.419468980252514 1.620121879192519 0.262792182895316 -18.427201736166936 5.2199953334799 0.8403179364458251 -27.099652577683344 1.534366418114696 0.2350513743150284 -17.419863198283416 1.457347360469947 0.21155854663157664 -16.519856732001344 3.3711732757638293 0.08743421264513589 -21.130845991365767 1.8305422097298782 0.3380176707626896 -20.924786305518158 1.5738569465277383 0.24761327087299428 -17.8829732894883 2.1952829755305516 -0.672104747527936 4.784378136266435 26.119902074927133 10.710846748020113 21.925880465325033 3.763150137025326 -13.792230752127178 8.08805323462643 -0.08588035642972738 5.612846242534981 0.43939626852925506 1.3411701501151294 -7.507224616325628 -0.32128471857448315 0 0 0 0 0 0 0 0 0 15.505705069923598 1.1610013669332917 14.828220062848136 28.8425405916268 11.291315256042305 64.72166326299947 6.703369004066348 0.0050610717974885235 -0.08637379087791555 -0.41576586384366504 -20.200573242645522 6.934251076054368 1.3635380619640343 0.026623571414688667 6.877658694580033 -1.183086119710927 0.1826274547366639 17.550324554377998 -0.5591043402821013 0.040061283891836164 8.193028070524374 -2.018754219160819 -0.16124258298472433 15.104960908223594 -1.1764847553226185 0.1805604850378739 17.449036916520317 -1.242245564519102 0.20185206427099328 18.4585490680933 -4.567261258090541 0.6773590747999482 26.477561089440496 -1.1796985668468478 0.18155514964231304 17.498328528476193 -1.1207222585337104 0.16347903869040614 16.59762838814397 -2.816736758220216 -0.015201830151103784 20.48431345385034 -1.403967014135195 0.25980231653531344 20.96708683405955 -1.2069386021897233 0.19025504217956096 17.915926246893008 -0.20308344010843518 -1.6632972696388224 -4.258475817499093 -30.691098863105594 11.054242894258705 -22.21095268316515 -3.867858699571417 -15.531278207153283 -11.622202066521746
0.015967104583978653 -0.08979354613037138 0.0135668208822608 -5.2934564063415905 -3.7127107602942013 -3.3113209721108534 15.11445502479505 -10.41584830371307 7.309532637004913 2.1507253841776803 12.196779399843887 4.6001318143515135 0.4303379765976618 1.2492972600002374 -7.115696416397035 -0.0000016292412983210252 -4.932500489759939 -4.020926269960042e-7 -10.328677089878294 0.5772253157143579 3.4753644842414966 -9.905076127122165 7.352684882352262 -4.430581850077592 -1.602359667331117 -3.730271494023419 3.360404144950747 0.0000027591420795612913 -7.277014645467257 0.0000025422095226333727 1.582016737931951 3.294286303980725 2.80986959095072 0.7664715227954895 2.270555108558547 3.142615661892706 0 0 0 -17.611636016071873 1.0137948049048044 -12.4161586355545 -20.78718686613586 3.1822906423007096 -70.91070874180231 -1.5060379692430674 0.0002605710498262235 0.01945209402120918 -1.8276684579738711 -33.26746363789854 -5.167532950116599 -1.0724820002757307 0.016930438373256387 -7.523286010254115 1.5317886045055127 0.23424073612038623 -17.38969252133658 0.7174137640409739 0.05045134556625631 -8.047200835620941 2.453025716596295 -0.10521030540907307 -15.674241429788678 1.5343310141545647 0.23504176928068582 -17.419487317495513 1.6201148383016195 0.2627812438054167 -18.427188237043783 5.2188474598930465 0.8395788092111858 -27.084612668634378 1.534365457955638 0.23504945330815938 -17.419854029657163 1.457339678940315 0.21154296515632337 -16.519851820782186 3.369234929300574 0.08705330242529465 -21.10906808817823 1.8305460498175226 0.3380327988277564 -20.924784710555738 1.5738524658651372 0.24761030931800304 -17.882958191588525 2.1906726182568574 -0.6724964431528471 4.780924261370664 26.118065731474488 10.71124818570183 21.92533622512554 3.7631406953562654 -13.792214927937117 8.088050128743895 -0.08703359119902372 5.584739545148712 0.4269513127291869 1.331198131957645 -7.532645798553213 -0.37724302390735615 0 0 0 0 0 0 0 0 0 15.494214597633553 1.1653014301778215 14.823452261049008 28.860764765478837 11.280835732237426 64.71436965970535 6.715943619416163 0.005073508211314005 -0.08655402362232376 -0.3887343784500014 -20.205824302167926 6.9339688516419 1.3235977510438077 0.04414894644139759 6.770600597404423 -1.1811508479824169 0.1820208321494219 17.52049854658853 -0.5569788782109238 0.03972381643614397 8.161986777621783 -2.0236984944200986 -0.15822877698119653 15.033500388870939 -1.1754810369685564 0.18023995814599497 17.433795969876517 -1.241245473418159 0.20152746819175105 18.443114358200614 -4.575891539435462 0.6809866937185419 26.41803414058384 -1.1776677993457236 0.18092246018447966 17.467325858097716 -1.118759319018723 0.16288312894892487 16.567711021025765 -2.8233554387636786 -0.012057941177800553 20.4422998370478 -1.4055067125288825 0.260395882098487 20.991096536624422 -1.2084687395856404 0.19074557787132831 17.939326494011084 -0.2258806094961748 -1.6621798497672235 -4.250031759679834 -30.680362940741396 11.048233590306904 -22.20749608683264 -3.8678626780793035 -15.53127997941577 -11.622221007818212
